<?xml version="1.0" standalone="no"?>
<!DOCTYPE svg PUBLIC "-//W3C//DTD SVG 20010904//EN"
 "http://www.w3.org/TR/2001/REC-SVG-20010904/DTD/svg10.dtd">
<svg version="1.0" xmlns="http://www.w3.org/2000/svg"
 width="1117.000000pt" height="1555.000000pt" viewBox="0 0 1117.000000 1555.000000"
 preserveAspectRatio="xMidYMid meet">

<g transform="translate(0.000000,1555.000000) scale(0.100000,-0.100000)"
fill="#000000" stroke="none">
<path d="M5963 14212 c-9 -6 -13 -263 -16 -1112 l-3 -1105 -38 -235 c-47 -298
-56 -487 -32 -677 100 -783 579 -1300 1451 -1568 66 -20 176 -55 245 -77 583
-190 920 -482 1027 -893 35 -135 44 -371 18 -496 -52 -257 -186 -488 -372
-639 -165 -134 -422 -236 -644 -255 -86 -8 -290 9 -412 34 l-82 16 0 -130 c-1
-205 -42 -377 -132 -555 -178 -347 -420 -560 -791 -694 -333 -120 -753 -144
-1132 -65 -281 58 -561 175 -814 339 l-109 71 -41 -27 c-111 -74 -352 -335
-534 -578 -170 -228 -253 -367 -352 -591 -68 -152 -166 -422 -157 -431 3 -4
43 17 88 46 252 162 596 254 954 254 150 1 208 -5 500 -47 379 -54 508 -67
655 -67 197 0 431 29 560 69 69 22 61 31 84 -99 64 -358 77 -805 31 -1136
-109 -792 -437 -1468 -1017 -2095 -64 -70 -114 -130 -111 -133 6 -6 1693 -9
1693 -3 0 2 -23 73 -51 157 -284 862 -275 1667 28 2435 131 332 348 707 601
1039 183 238 458 473 977 831 269 186 378 270 502 389 426 406 685 943 757
1566 18 156 21 484 5 610 -52 424 -211 749 -497 1021 -187 178 -392 304 -745
460 -277 122 -486 225 -581 286 -161 104 -415 331 -507 453 -98 129 -203 371
-254 584 -45 181 -144 753 -184 1056 -23 169 -56 496 -67 657 -4 62 -12 107
-19 113 -12 10 -45 4 -45 -9 0 -3 -20 -242 -45 -530 -25 -289 -45 -531 -45
-540 0 -8 -2 -12 -4 -10 -3 3 -70 517 -151 1144 -80 627 -149 1146 -153 1154
-11 19 -24 23 -39 13z m286 -3038 c27 -35 26 -66 -2 -100 -17 -20 -33 -27 -57
-27 -24 0 -40 7 -57 27 -28 34 -29 65 -2 100 16 20 29 26 59 26 30 0 43 -6 59
-26z m376 -940 c51 -80 222 -262 318 -339 54 -44 132 -91 232 -141 128 -65
143 -75 105 -69 -306 44 -684 260 -812 466 -45 71 -4 138 84 139 34 0 40 -4
73 -56z"/>
<path d="M3330 9803 c-238 -16 -364 -28 -535 -49 -208 -26 -275 -43 -174 -44
31 0 103 -5 160 -10 621 -63 1136 -395 1446 -934 l47 -82 106 -28 c204 -55
629 -186 783 -240 218 -78 334 -129 637 -280 346 -172 472 -244 693 -398 291
-204 470 -323 518 -346 64 -30 199 -67 323 -88 131 -23 124 -28 160 125 37
156 50 285 43 446 -9 201 -46 342 -147 550 -161 330 -327 484 -775 716 -710
368 -1602 601 -2520 659 -143 9 -651 11 -765 3z"/>
<path d="M2295 8733 c-341 -27 -507 -48 -745 -94 -177 -34 -484 -110 -562
-140 l-53 -19 135 5 c74 3 266 12 425 20 693 35 921 31 1240 -20 1053 -170
2031 -823 2670 -1780 174 -261 277 -450 385 -705 29 -69 56 -128 59 -133 11
-11 162 20 259 55 104 36 260 113 357 175 91 59 237 207 304 308 148 226 231
482 231 716 0 82 -3 102 -18 117 -50 50 -417 314 -647 465 -214 140 -385 237
-650 367 -814 399 -1581 598 -2550 660 -143 9 -739 12 -840 3z"/>
<path d="M2471 8403 c110 -182 452 -665 647 -913 473 -602 1023 -1166 1320
-1356 269 -173 630 -268 1066 -281 l199 -6 -7 26 c-21 87 -173 403 -273 568
-192 320 -637 841 -949 1110 -389 335 -978 631 -1590 799 -150 41 -375 90
-413 90 l-23 0 23 -37z"/>
</g>
</svg>
